# xmcd CD database file
#
# Track frame offsets:
#	150
#	18302
#	29777
#
# Disc length: 686 seconds
#
# Revision: 0
# Processed by: cddbd v1.5.1PL0 Copyright (c) Steve Scherf et al.
# Submitted via: CDex 1.51
#
DISCID=1f02ac03
DTITLE=Bella - About A Girl
DYEAR=2004
DGENRE=Country
TTITLE0=About A Girl (Radio Edit)
TTITLE1=Just Is
TTITLE2=About A Girl (Album Version)
EXTD=YEAR: 2004
EXTT0=
EXTT1=
EXTT2=
PLAYORDER=
